<svg width="27" height="28" viewBox="0 0 27 28" fill="none" xmlns="http://www.w3.org/2000/svg">
<path fill-rule="evenodd" clip-rule="evenodd" d="M0.166672 14.0201C0.166672 6.99624 5.78001 0.666748 13.5267 0.666748C21.1 0.666748 26.8333 6.87606 26.8333 13.9801C26.8333 22.2191 20.1133 27.3334 13.5 27.3334C11.3133 27.3334 8.88667 26.7459 6.94001 25.5975C6.26 25.1835 5.68667 24.8764 4.95334 25.1168L2.26001 25.918C1.58001 26.1316 0.966672 25.5975 1.16667 24.8764L2.06001 21.8852C2.20667 21.4713 2.18001 21.0306 1.96667 20.6834C0.820005 18.5736 0.166672 16.2635 0.166672 14.0201ZM11.7667 14.0199C11.7667 14.968 12.5267 15.7292 13.4733 15.7425C14.42 15.7425 15.18 14.968 15.18 14.0333C15.18 13.0852 14.42 12.3241 13.4733 12.3241C12.54 12.3107 11.7667 13.0852 11.7667 14.0199ZM17.9133 14.0334C17.9133 14.9681 18.6733 15.7426 19.62 15.7426C20.5667 15.7426 21.3267 14.9681 21.3267 14.0334C21.3267 13.0853 20.5667 12.3241 19.62 12.3241C18.6733 12.3241 17.9133 13.0853 17.9133 14.0334ZM7.32666 15.7427C6.39333 15.7427 5.62 14.9682 5.62 14.0334C5.62 13.0854 6.38 12.3242 7.32666 12.3242C8.27333 12.3242 9.03333 13.0854 9.03333 14.0334C9.03333 14.9682 8.27333 15.7293 7.32666 15.7427Z" fill="white"/>
</svg>
