<svg width="27" height="26" viewBox="0 0 27 26" fill="none" xmlns="http://www.w3.org/2000/svg">
<path fill-rule="evenodd" clip-rule="evenodd" d="M18.6331 0.334197C19.4744 0.334197 20.3144 0.452864 21.1131 0.720864C26.0344 2.32086 27.8077 7.72086 26.3264 12.4409C25.4864 14.8529 24.1131 17.0542 22.3144 18.8529C19.7397 21.3462 16.9144 23.5595 13.8731 25.4662L13.5397 25.6675L13.1931 25.4529C10.1411 23.5595 7.29974 21.3462 4.70107 18.8395C2.9144 17.0409 1.53974 14.8529 0.686404 12.4409C-0.820263 7.72086 0.953071 2.32086 5.92774 0.692864C6.3144 0.559531 6.71307 0.466197 7.11307 0.414197H7.27307C7.64774 0.359531 8.01974 0.334197 8.39307 0.334197H8.53974C9.37974 0.359531 10.1931 0.506197 10.9811 0.774197H11.0597C11.1131 0.799531 11.1531 0.827531 11.1797 0.852864C11.4744 0.947531 11.7531 1.0542 12.0197 1.20086L12.5264 1.42753C12.6488 1.49283 12.7863 1.5926 12.905 1.67883C12.9803 1.73346 13.048 1.78265 13.0997 1.8142C13.1215 1.82704 13.1436 1.83994 13.1659 1.85296C13.2802 1.9197 13.3993 1.98921 13.4997 2.0662C14.9811 0.934197 16.7797 0.320864 18.6331 0.334197ZM22.1797 9.93419C22.7264 9.91953 23.1931 9.48086 23.2331 8.91953V8.76086C23.2731 6.89286 22.1411 5.20086 20.4197 4.54753C19.8731 4.35953 19.2731 4.65419 19.0731 5.21419C18.8864 5.77419 19.1797 6.38753 19.7397 6.58619C20.5944 6.90619 21.1664 7.74753 21.1664 8.67953V8.72086C21.1411 9.02619 21.2331 9.32086 21.4197 9.54753C21.6064 9.77419 21.8864 9.90619 22.1797 9.93419Z" fill="#CA574E"/>
</svg>
